<?xml version="1.0" standalone="no"?>
<!DOCTYPE svg PUBLIC "-//W3C//DTD SVG 20010904//EN"
 "http://www.w3.org/TR/2001/REC-SVG-20010904/DTD/svg10.dtd">
<svg version="1.0" xmlns="http://www.w3.org/2000/svg"
 width="1366.000000pt" height="621.000000pt" viewBox="0 0 1366.000000 621.000000"
 preserveAspectRatio="xMidYMid meet">
<metadata>
Created by potrace 1.16, written by Peter Selinger 2001-2019
</metadata>
<g transform="translate(0.000000,621.000000) scale(0.100000,-0.100000)"
fill="#000000" stroke="none">
<path d="M2500 5831 c0 -295 3 -380 13 -382 6 -2 2517 -3 5580 -1 l5567 2 0
380 0 380 -5580 0 -5580 0 0 -379z m3100 207 c166 -100 140 -349 -43 -417 -19
-8 -434 -11 -1308 -11 -1277 0 -1280 0 -1321 21 -82 42 -127 117 -128 212 0
88 41 157 120 201 l45 26 1290 0 1291 0 54 -32z m6973 -35 c42 -21 20 -28 -28
-9 -21 9 -47 16 -58 16 -26 0 -57 -28 -57 -51 0 -11 -13 -22 -37 -30 -21 -6
-41 -13 -45 -15 -3 -2 7 -31 24 -64 28 -56 43 -68 76 -57 4 1 7 25 7 52 0 42
3 52 23 60 12 5 22 16 22 24 0 8 10 3 27 -14 24 -24 26 -28 12 -38 -9 -7 -14
-18 -11 -25 2 -7 -5 -16 -16 -19 -21 -5 -42 -42 -42 -73 0 -33 16 -30 28 5 13
34 42 56 42 30 0 -7 -4 -17 -10 -20 -15 -9 -12 -52 5 -85 15 -29 15 -30 -10
-30 -14 0 -25 5 -25 12 0 9 -3 9 -12 0 -31 -31 -116 8 -153 71 -41 71 -26 190
30 237 50 42 151 53 208 23z"/>
<path d="M3151 3161 c-8 -5 -10 -14 -6 -21 5 -9 4 -11 -3 -6 -9 5 -12 -40 -12
-177 0 -165 2 -186 18 -200 17 -15 72 -17 589 -17 539 0 571 1 586 18 15 16
17 45 17 200 0 176 -1 181 -22 196 -20 14 -92 16 -588 16 -311 0 -571 -4 -579
-9z m798 -213 l9 -33 1 32 1 31 84 0 c79 1 84 0 79 -19 -3 -12 -15 -25 -27
-29 l-21 -9 22 0 c50 -2 38 -47 -14 -53 -28 -3 -37 -1 -41 14 -2 10 -11 18
-18 18 -9 0 -14 11 -14 30 0 17 -4 30 -10 30 -5 0 -10 -13 -10 -29 0 -28 -1
-28 -60 -30 -58 -1 -60 0 -60 24 0 20 5 25 28 26 20 1 22 2 7 6 -38 9 -40 23
-2 23 33 0 37 -3 46 -32z"/>
<path d="M4476 3154 c-13 -13 -16 -45 -16 -195 0 -105 4 -188 10 -200 10 -18
28 -19 655 -19 572 0 645 2 659 16 24 23 24 375 0 398 -14 14 -87 16 -654 16
-567 0 -640 -2 -654 -16z m854 -178 c0 -31 2 -33 28 -27 25 5 25 6 5 9 -36 5
-27 24 10 20 29 -3 32 -6 35 -40 l3 -38 -60 1 c-51 1 -61 4 -61 19 0 14 -6 16
-27 11 -26 -5 -26 -6 -5 -9 50 -8 17 -21 -53 -21 l-75 0 0 49 c0 43 3 50 20
50 17 0 20 -7 20 -40 0 -34 3 -40 21 -40 11 0 17 4 14 10 -3 5 -1 19 5 30 12
23 65 28 73 8 3 -7 6 -1 6 15 1 20 6 27 21 27 16 0 20 -7 20 -34z"/>
<path d="M8486 3154 c-13 -13 -16 -45 -16 -199 0 -154 3 -186 16 -199 14 -14
81 -16 590 -16 432 0 573 3 568 12 -5 7 -3 8 6 3 24 -15 30 22 30 201 0 163
-2 183 -18 197 -17 15 -72 17 -590 17 -505 0 -572 -2 -586 -16z"/>
<path d="M9816 3154 c-13 -13 -16 -45 -16 -199 0 -154 3 -186 16 -199 14 -14
87 -16 659 -16 627 0 645 1 655 19 6 12 10 95 10 200 0 150 -3 182 -16 195
-14 14 -87 16 -654 16 -567 0 -640 -2 -654 -16z m854 -178 c0 -31 2 -33 28
-27 25 5 25 6 5 9 -36 5 -27 24 10 20 29 -3 32 -6 35 -40 l3 -38 -60 1 c-51 1
-61 4 -61 19 0 14 -6 16 -27 11 -26 -5 -26 -6 -5 -9 50 -8 17 -21 -53 -21
l-75 0 0 49 c0 43 3 50 20 50 17 0 20 -7 20 -40 0 -34 3 -40 21 -40 11 0 17 4
14 10 -3 5 -1 19 5 30 12 23 65 28 73 8 3 -7 6 -1 6 15 1 20 6 27 21 27 16 0
20 -7 20 -34z"/>
<path d="M0 95 l0 -95 570 0 570 0 0 83 c0 51 -5 88 -12 95 -9 9 -149 12 -570
12 l-558 0 0 -95z"/>
</g>
</svg>
